STARTFONT 2.1
FONT -Monotype-Century Schoolbook-Bold-I-Normal--36-360-75-75-P-212-iso8859-4
SIZE 36 75 75
FONTBOUNDINGBOX 48 46 -7 -8

STARTPROPERTIES 24
FOUNDRY "Monotype"
FAMILY_NAME "Century Schoolbook"
WEIGHT_NAME "Bold"
SLANT "I"
SETWIDTH_NAME "Normal"
ADD_STYLE_NAME ""
PIXEL_SIZE 36
POINT_SIZE 360
RESOLUTION_X 75
RESOLUTION_Y 75
SPACING "P"
AVERAGE_WIDTH 212
CHARSET_REGISTRY "iso8859"
CHARSET_ENCODING "4"
FACE_NAME "Century Schoolbook Bold Italic ISO Latin4"
_DEC_DEVICE_FONTNAMES "PS=centuryschoolbook-bit-lat4"
COPYRIGHT "Copyright (c) 1993 Monotype Typography Ltd."
CAP_HEIGHT 33
X_HEIGHT 22
WEIGHT 10
QUAD_WIDTH 23
DEFAULT_CHAR 160
FONT_DESCENT 8
FONT_ASCENT 38
ENDPROPERTIES

CHARS 191

STARTCHAR space
ENCODING 32
SWIDTH 287 0
DWIDTH 11 0
BBX 0 0 0 0
BITMAP
ENDCHAR

STARTCHAR exclam
ENCODING 33
SWIDTH 333 0
DWIDTH 13 0
BBX 12 28 1 0
BITMAP
01F0
03F0
03F0
03F0
03F0
03E0
03E0
03C0
07C0
0780
0780
0700
0700
0600
0E00
0C00
0C00
0C00
0800
1800
0000
0000
7800
FC00
FC00
FC00
FC00
7800
ENDCHAR

STARTCHAR quotedbl
ENCODING 34
SWIDTH 400 0
DWIDTH 15 0
BBX 13 12 5 14
BITMAP
7878
FCF8
F8F8
F9F8
F9F0
F1F0
F1E0
E1E0
C1C0
C180
8180
8100
ENDCHAR

STARTCHAR numbersign
ENCODING 35
SWIDTH 606 0
DWIDTH 23 0
BBX 21 28 2 0
BITMAP
00E0F0
01E0E0
01C0E0
01C0E0
01C1E0
01C1C0
0381C0
0381C0
FFFFF8
FFFFF8
FBFFF8
078380
070380
070380
070380
070700
0E0700
FFFFF8
FFFFF8
EFFFF8
1E0E00
1C0E00
1C0E00
1C0E00
1C1E00
3C1C00
381C00
381C00
ENDCHAR

STARTCHAR dollar
ENCODING 36
SWIDTH 574 0
DWIDTH 22 0
BBX 20 33 2 -5
BITMAP
000300
000600
007F80
00F6E0
01CC60
038CF0
038DF0
0789F0
0799E0
07D8C0
07F800
03F000
03F800
01FC00
01FE00
00FE00
007F00
00FF00
00DF80
38CF80
7CC780
FDC780
F98780
F18700
638F00
731E00
3F7C00
0FF000
060000
060000
060000
0C0000
0C0000
ENDCHAR

STARTCHAR percent
ENCODING 37
SWIDTH 889 0
DWIDTH 34 0
BBX 25 27 6 0
BITMAP
07800600
1CC00C00
38E00800
38E01800
78E03000
71E06000
F1E06000
F1E0C000
F1C18000
E3C30000
E3830000
E7860000
670C0000
3C080000
00183E00
00307300
0060E380
0061E380
00C1E780
0181C780
0303C780
0303C780
06038F00
0C038F00
08038E00
18019C00
3000F000
ENDCHAR

STARTCHAR ampersand
ENCODING 38
SWIDTH 889 0
DWIDTH 34 0
BBX 31 28 2 0
BITMAP
0003F000
000FFC00
001F1E00
003E0F00
003C0F00
007C0F00
007C0E00
007C1E00
007C3C00
007EF800
007FE000
007E0000
03FE0FFE
0FBF0FFC
1F3F01F0
3E3F01E0
7C1F81C0
7C1F8180
FC0FC300
FC0FC700
FC0FEE00
FC07FC04
FE03F00C
7F03F81C
7F81FC38
3FFFFFF0
1FFE7FE0
03F01F80
ENDCHAR

STARTCHAR quoteright
ENCODING 39
SWIDTH 259 0
DWIDTH 10 0
BBX 9 12 2 16
BITMAP
1E00
3F00
3F80
3F80
3F80
1F80
0700
0700
0E00
1C00
F800
E000
ENDCHAR

STARTCHAR parenleft
ENCODING 40
SWIDTH 407 0
DWIDTH 15 0
BBX 16 35 3 -7
BITMAP
0007
001C
0038
0070
01F0
03E0
07C0
0780
0F80
1F00
1F00
3E00
3E00
7E00
7C00
7C00
FC00
FC00
FC00
F800
F800
F800
F800
F800
F800
7800
7800
7800
7C00
3C00
1C00
1C00
0C00
0600
0600
ENDCHAR

STARTCHAR parenright
ENCODING 41
SWIDTH 407 0
DWIDTH 15 0
BBX 16 35 -3 -7
BITMAP
0060
0070
0030
0038
003C
003C
001E
001E
001E
001F
001F
001F
001F
001F
001F
001F
001F
003F
003F
003F
003E
007E
007E
007C
00FC
00F8
01F0
03F0
03E0
07C0
0780
0F00
1C00
3800
F000
ENDCHAR

STARTCHAR asterisk
ENCODING 42
SWIDTH 500 0
DWIDTH 19 0
BBX 17 18 3 11
BITMAP
008000
01E000
03E000
03E000
03E000
61C300
F9CF80
FC9F80
FEBF80
FFFF80
01C000
036000
0F7800
1F7C00
3E3E00
3E3E00
1E3C00
000800
ENDCHAR

STARTCHAR plus
ENCODING 43
SWIDTH 606 0
DWIDTH 23 0
BBX 21 21 3 2
BITMAP
007000
007000
007000
007000
007000
007000
007000
007000
007000
FFFFF8
FFFFF8
FFFFF8
007000
007000
007000
007000
007000
007000
007000
007000
007000
ENDCHAR

STARTCHAR comma
ENCODING 44
SWIDTH 287 0
DWIDTH 11 0
BBX 9 12 -2 -6
BITMAP
1E00
1F00
3F80
3F80
3F80
1F80
0780
0700
0E00
1C00
7800
E000
ENDCHAR

STARTCHAR minus
ENCODING 45
SWIDTH 606 0
DWIDTH 23 0
BBX 21 3 3 11
BITMAP
FFFFF8
FFFFF8
FFFFF8
ENDCHAR

STARTCHAR period
ENCODING 46
SWIDTH 287 0
DWIDTH 11 0
BBX 6 6 1 0
BITMAP
78
FC
FC
FC
FC
78
ENDCHAR

STARTCHAR slash
ENCODING 47
SWIDTH 278 0
DWIDTH 11 0
BBX 20 28 -4 0
BITMAP
000070
0000E0
0001E0
0001C0
0003C0
000380
000700
000F00
000E00
001E00
001C00
003C00
007800
007000
00F000
00E000
01E000
03C000
038000
078000
070000
0F0000
1E0000
1C0000
3C0000
380000
780000
F00000
ENDCHAR

STARTCHAR zero
ENCODING 48
SWIDTH 574 0
DWIDTH 22 0
BBX 19 27 3 0
BITMAP
003E00
00FF80
01E380
03C1C0
0781C0
0F81E0
1F01E0
1F01E0
3F03E0
3E03E0
3E03E0
7E03E0
7C07E0
7C07C0
7C07C0
F807C0
F80FC0
F80F80
F81F80
F01F00
F01F00
F03E00
703C00
707800
38F000
1FE000
0F8000
ENDCHAR

STARTCHAR one
ENCODING 49
SWIDTH 574 0
DWIDTH 22 0
BBX 16 27 3 0
BITMAP
0003
0007
003E
03FE
07FE
003C
007C
007C
007C
0078
00F8
00F8
00F8
00F0
01F0
01F0
01F0
01E0
03E0
03E0
03C0
07C0
07C0
07C0
0FC0
FFFC
FFF8
ENDCHAR

STARTCHAR two
ENCODING 50
SWIDTH 574 0
DWIDTH 22 0
BBX 21 26 1 0
BITMAP
003F80
00FFE0
01C3F0
0301F8
0700F8
0700F8
07C0F8
07E0F8
07E1F8
03E1F0
01C1F0
0003E0
0007C0
000F80
001E00
007800
00F000
01C000
038000
0600C0
0C01C0
180380
3FFF80
7FFF00
FFFF00
FFFF00
ENDCHAR

STARTCHAR three
ENCODING 51
SWIDTH 574 0
DWIDTH 22 0
BBX 20 27 2 0
BITMAP
007E00
01FFC0
0383E0
0381E0
07C1F0
07C1F0
07C1F0
0381F0
0003E0
0003E0
0007C0
001F00
07F400
03F800
011E00
000F00
000F80
780F80
7C0F80
FC0F80
FC1F80
F81F80
F03F00
603F00
30FE00
1FF800
07E000
ENDCHAR

STARTCHAR four
ENCODING 52
SWIDTH 574 0
DWIDTH 22 0
BBX 20 27 2 0
BITMAP
000030
000060
0000E0
0001E0
0003E0
0007C0
000FC0
001FC0
0037C0
006780
00CF80
018F80
030F00
061F00
0C1F00
181F00
301E00
703E00
7FFFC0
FFFFC0
007C00
007C00
007C00
007800
00FC00
07FF00
07FF00
ENDCHAR

STARTCHAR five
ENCODING 53
SWIDTH 574 0
DWIDTH 22 0
BBX 20 26 3 0
BITMAP
00F070
01FFE0
01FFE0
01FF80
03FE00
030000
060000
060000
060000
0DF800
0FFE00
1C1F00
180F00
100F80
000F80
000F80
000F80
381F80
7C1F80
FC1F00
FC3F00
F83E00
E07C00
60F800
3FF000
0F8000
ENDCHAR

STARTCHAR six
ENCODING 54
SWIDTH 574 0
DWIDTH 22 0
BBX 19 27 4 0
BITMAP
001F00
007FC0
00E3C0
03C3E0
03C7E0
0787E0
0F03C0
1F0100
1F0000
3E0000
3E0000
7FF800
7FFC00
7F3E00
FE1F00
FC1F00
FC1F00
F81F00
F83F00
F83F00
F83E00
F07E00
707C00
707C00
38F800
1FE000
0F8000
ENDCHAR

STARTCHAR seven
ENCODING 55
SWIDTH 574 0
DWIDTH 22 0
BBX 18 27 6 0
BITMAP
180000
3FFFC0
3FFFC0
3FFF80
7FFF00
780600
600C00
E01C00
C03800
003000
006000
00E000
01C000
01C000
038000
078000
0F8000
0F0000
1F0000
1F0000
3F0000
3E0000
7E0000
7E0000
7E0000
7C0000
3C0000
ENDCHAR

STARTCHAR eight
ENCODING 56
SWIDTH 574 0
DWIDTH 22 0
BBX 19 27 2 0
BITMAP
003E00
00FF80
01C1C0
0380E0
0700E0
0700E0
0700E0
0780E0
07C1C0
07C1C0
07E780
03FE00
01F800
01FC00
0FBE00
1E3F00
381F00
700F80
F00F80
E00780
E00780
E00780
F00F00
700E00
783E00
1FF800
07E000
ENDCHAR

STARTCHAR nine
ENCODING 57
SWIDTH 574 0
DWIDTH 22 0
BBX 19 27 3 0
BITMAP
003E00
00FF80
03E3C0
07C1C0
07C1E0
0F81E0
0F81E0
1F83E0
1F03E0
1F03E0
1F03E0
1F07E0
0F07E0
0F8FC0
07FFC0
03EFC0
000F80
000F80
001F00
301F00
781E00
FC3C00
FC7C00
F87800
79E000
7FC000
1F0000
ENDCHAR

STARTCHAR colon
ENCODING 58
SWIDTH 287 0
DWIDTH 11 0
BBX 9 18 1 0
BITMAP
0F00
1F80
1F80
1F80
1F80
0F00
0000
0000
0000
0000
0000
0000
7800
FC00
FC00
FC00
FC00
7800
ENDCHAR

STARTCHAR semicolon
ENCODING 59
SWIDTH 287 0
DWIDTH 11 0
BBX 12 24 -2 -6
BITMAP
01E0
03F0
03F0
03F0
03F0
01E0
0000
0000
0000
0000
0000
0000
1F00
3F00
3F80
3F80
3F80
0F80
0700
0700
0E00
3C00
F000
C000
ENDCHAR

STARTCHAR less
ENCODING 60
SWIDTH 606 0
DWIDTH 23 0
BBX 21 21 3 2
BITMAP
000008
000078
0001F8
0007F8
003FE0
00FF80
07FC00
1FF000
7F8000
FE0000
F80000
FE0000
7FC000
0FF000
03FE00
00FF80
001FF0
0007F8
0000F8
000038
000008
ENDCHAR

STARTCHAR equal
ENCODING 61
SWIDTH 606 0
DWIDTH 23 0
BBX 21 12 3 7
BITMAP
FFFFF8
FFFFF8
FFFFF8
000000
000000
000000
000000
000000
000000
FFFFF8
FFFFF8
FFFFF8
ENDCHAR

STARTCHAR greater
ENCODING 62
SWIDTH 606 0
DWIDTH 23 0
BBX 21 21 3 2
BITMAP
800000
E00000
FC0000
FF0000
7FC000
0FF800
03FE00
007FC0
001FF0
0003F8
0000F8
0007F8
001FE0
00FF80
03FE00
1FF000
7FC000
FE0000
F80000
E00000
800000
ENDCHAR

STARTCHAR question
ENCODING 63
SWIDTH 481 0
DWIDTH 18 0
BBX 16 28 3 0
BITMAP
01F0
07FC
0E1E
0C0F
180F
180F
101F
003F
00FE
01FE
07FC
0FF0
1FC0
3F00
3C00
3800
3860
38E0
1FC0
0700
0000
0000
7800
FC00
FC00
FC00
FC00
7800
ENDCHAR

STARTCHAR at
ENCODING 64
SWIDTH 747 0
DWIDTH 28 0
BBX 28 29 2 -3
BITMAP
001FF000
00F01C00
03C00600
07000100
0C000080
18000040
18000040
300F3860
201CB820
6038F820
6070F020
40F0F020
C0E0F020
C1E1E020
C1E1E020
C1C1E040
C3C3E040
C3C5C080
43CDC100
43FBC210
63F3CC10
21E1F020
30000020
10000040
08000080
04000300
03000600
00C03800
003FC000
ENDCHAR

STARTCHAR A
ENCODING 65
SWIDTH 741 0
DWIDTH 28 0
BBX 29 28 -1 0
BITMAP
00001C00
00003C00
00003C00
00007C00
0000FC00
0000FE00
0001FE00
0001BE00
00037E00
00077E00
00063E00
000C3E00
001C3F00
00183F00
00303F00
00703F00
00603F00
00FFFF00
00FFFF00
01801F00
03801F80
03001F80
06001F80
0E001F80
0E000F80
3E001FC0
FFC0FFF8
FFC0FFF0
ENDCHAR

STARTCHAR B
ENCODING 66
SWIDTH 759 0
DWIDTH 29 0
BBX 30 28 -2 0
BITMAP
03FFFFC0
03FFFFF0
003F03F8
003F01FC
003F00FC
003E00FC
007E00FC
007E00FC
007E01FC
00FC01F8
00FC03F0
00FC0FC0
00FFFC00
01FFFF00
01F807C0
01F803F0
01F801F0
03F001F8
03F001F8
03F001F8
07F001F8
07E003F8
07E003F0
07E007F0
0FE00FE0
0FE01FC0
FFFFFF80
FFFFFC00
ENDCHAR

STARTCHAR C
ENCODING 67
SWIDTH 759 0
DWIDTH 29 0
BBX 26 28 4 0
BITMAP
001FE000
007FF840
01FC1CC0
03F007C0
07E003C0
0FC003C0
1F800380
1F800180
3F000180
3F000180
7E000180
7E000000
7E000000
FE000000
FC000000
FC000000
FC000000
FC000000
FC000000
FC000200
FC000600
7E000E00
7E000C00
3F001800
3F803000
1FE0E000
07FFC000
01FF0000
ENDCHAR

STARTCHAR D
ENCODING 68
SWIDTH 833 0
DWIDTH 32 0
BBX 31 28 0 0
BITMAP
03FFFE00
07FFFFC0
007F03E0
007E01F8
007E00F8
007E00FC
007C007C
00FC007E
00FC007E
00FC007E
00F8007E
01F8007E
01F8007E
01F8007E
03F000FE
03F000FE
03F000FC
03E001FC
07E001FC
07E001F8
07E003F8
07C003F0
0FC007E0
0FC00FC0
0F801F80
1FC07F00
FFFFFC00
FFFFC000
ENDCHAR

STARTCHAR E
ENCODING 69
SWIDTH 741 0
DWIDTH 28 0
BBX 29 28 0 0
BITMAP
03FFFFF8
07FFFFF8
007F00F8
003E0070
007E0070
007E0030
007E0030
00FC0030
00FC0C20
00FC0C00
00FC1800
01F83800
01F87800
01FFF800
01FFF000
03F0F000
03F07000
03F07000
07E06000
07E06060
07E060C0
07E001C0
0FC00180
0FC00380
0FC00F80
1FC03F00
FFFFFF00
FFFFFF00
ENDCHAR

STARTCHAR F
ENCODING 70
SWIDTH 704 0
DWIDTH 27 0
BBX 29 28 0 0
BITMAP
03FFFFF8
03FFFFF8
003F00F8
003E0078
007E0030
007E0030
007E0030
007C0030
00FC0630
00FC0C00
00FC1C00
01F83C00
01FFF800
01FFF800
01F07800
03F03800
03F03000
03F03000
03E03000
07E03000
07E00000
07E00000
07C00000
0FC00000
0FC00000
1FC00000
FFFC0000
FFFC0000
ENDCHAR

STARTCHAR G
ENCODING 71
SWIDTH 815 0
DWIDTH 31 0
BBX 28 28 3 0
BITMAP
0007F000
003FFC60
00FC0FE0
01F807E0
03F003C0
07E001C0
0FC001C0
1F8001C0
3F8000C0
3F0000C0
7F000080
7F000000
7E000000
FE000000
FE000000
FE00FFF0
FC00FFF0
FC001F80
FC001F80
FC001F00
FC003F00
7C003F00
7E007E00
3E007E00
3F00EE00
1F81CE00
07FF0C00
00FC0C00
ENDCHAR

STARTCHAR H
ENCODING 72
SWIDTH 870 0
DWIDTH 33 0
BBX 36 28 0 0
BITMAP
03FFE1FFF0
03FFE3FFF0
003F003F00
007E003F00
007E003F00
007E007E00
007E007E00
00FC007E00
00FC007C00
00FC00FC00
00F800FC00
01F800FC00
01F800F800
01FFFFF800
01FFFFF800
03F001F800
03F001F000
03F003F000
07E003F000
07E003F000
07E003E000
07C007E000
0FC007E000
0FC007E000
0FC00FC000
1FC00FC000
FFF87FFC00
FFF8FFFC00
ENDCHAR

STARTCHAR I
ENCODING 73
SWIDTH 444 0
DWIDTH 17 0
BBX 20 28 0 0
BITMAP
03FFF0
03FFE0
007F00
003E00
007E00
007E00
007E00
00FC00
00FC00
00FC00
00F800
01F800
01F800
01F800
01F000
03F000
03F000
03F000
03E000
07E000
07E000
07E000
07C000
0FC000
0FC000
1FC000
FFFC00
FFF800
ENDCHAR

STARTCHAR J
ENCODING 74
SWIDTH 667 0
DWIDTH 25 0
BBX 27 28 1 0
BITMAP
0003FFE0
0003FFE0
00003F00
00003F00
00007E00
00007E00
00007E00
00007E00
0000FC00
0000FC00
0000FC00
0000F800
0001F800
0001F800
0001F800
0003F000
1F03F000
3F83F000
7F83F000
FF87E000
FF87E000
CF07C000
C00FC000
C00F8000
601F8000
387F0000
1FFC0000
07F00000
ENDCHAR

STARTCHAR K
ENCODING 75
SWIDTH 778 0
DWIDTH 30 0
BBX 33 28 -1 0
BITMAP
01FFF1FF80
01FFE3FF80
003F007C00
003F007800
003F00E000
007E01C000
007E038000
007E070000
007C0E0000
00FC180000
00FC300000
00FCF00000
01F9F80000
01FBF80000
01FBF80000
01FEFC0000
03F87C0000
03F07E0000
03F03E0000
03F03F0000
07E03F0000
07E01F8000
07E01F8000
0FC00FC000
0FC00FC000
0FC00FE000
7FFC7FFC00
FFFC7FFC00
ENDCHAR

STARTCHAR L
ENCODING 76
SWIDTH 704 0
DWIDTH 27 0
BBX 26 28 0 0
BITMAP
03FFF800
03FFF000
003F0000
003F0000
003E0000
007E0000
007E0000
007E0000
007C0000
00FC0000
00FC0000
00FC0000
01F80000
01F80000
01F80000
01F00000
03F00000
03F00000
03F000C0
03E000C0
07E00180
07E00380
07E00380
07C00700
0FC00F00
0FC03F00
FFFFFF00
FFFFFE00
ENDCHAR

STARTCHAR M
ENCODING 77
SWIDTH 944 0
DWIDTH 36 0
BBX 40 28 -1 0
BITMAP
03FF8001FF
03FF8003FF
003F8007F8
003F8007F0
003F800FF0
0077800DE0
006F801BE0
006F803BE0
006F8037E0
00EF8067C0
00CFC067C0
00CFC0CFC0
00CFC1CFC0
018FC18F80
0187C30F80
0187C71F80
0387C61F80
0307CE1F00
0307CC1F00
0307D83F00
0707F83F00
0607F03E00
0607E07E00
0E07E07E00
1E03C07E00
3F03C0FE00
FFE387FFC0
FFC307FFC0
ENDCHAR

STARTCHAR N
ENCODING 78
SWIDTH 852 0
DWIDTH 32 0
BBX 33 28 1 0
BITMAP
03FE00FF80
03FE01FF80
007F003E00
007F001C00
007F001800
007F801800
006F801800
006FC03000
00CFC03000
00C7E03000
00C7E03000
01C3F06000
0183F06000
0181F86000
0181F86000
0381F8C000
0300FCC000
0300FCC000
03007FC000
06007F8000
06003F8000
06003F8000
06001F8000
0E001F0000
1E000F0000
3F000F0000
FFE00E0000
FFC0060000
ENDCHAR

STARTCHAR O
ENCODING 79
SWIDTH 833 0
DWIDTH 32 0
BBX 29 28 3 0
BITMAP
0003F800
001FFF00
007C0F80
01F807C0
03E003E0
07E001F0
0FC001F0
1F8001F8
3F8001F8
3F0001F8
7F0001F8
7F0001F8
7E0003F8
FE0003F8
FE0003F8
FE0003F0
FC0007F0
FC0007F0
FC0007E0
FC000FE0
FC000FC0
7C001F80
7C003F00
3E003E00
1F007C00
0F81F800
07FFE000
00FE0000
ENDCHAR

STARTCHAR P
ENCODING 80
SWIDTH 741 0
DWIDTH 28 0
BBX 30 28 -1 0
BITMAP
03FFFF80
03FFFFE0
003F03F0
003F01F8
003F00FC
007E00FC
007E00FC
007E00FC
007C00FC
00FC01FC
00FC01F8
00FC03F8
00F807F0
01F80FE0
01FFFF80
01FFFC00
03F00000
03F00000
03F00000
03F00000
07E00000
07E00000
07E00000
07C00000
0FC00000
0FC00000
FFFC0000
FFFC0000
ENDCHAR

STARTCHAR Q
ENCODING 81
SWIDTH 833 0
DWIDTH 32 0
BBX 29 35 3 -7
BITMAP
0007F800
003FFF00
00FC0F80
01F003C0
03E003E0
0FE001F0
0FC001F0
1F8001F8
3F8001F8
3F0001F8
7F0001F8
7E0001F8
7E0003F8
FE0003F8
FE0003F8
FC0003F0
FC0007F0
FC3E07F0
FCFF87E0
FDC3CFE0
7D81CFC0
7D01DF80
7F01FF00
3F01FE00
1F81FC00
0F83F000
07FFE000
00FFF000
0003F000
0003F000
0003F080
0003F900
0001FF00
0000FE00
00007800
ENDCHAR

STARTCHAR R
ENCODING 82
SWIDTH 796 0
DWIDTH 30 0
BBX 30 28 -1 0
BITMAP
03FFFF80
03FFFFF0
003F03F8
003F01F8
003E00FC
007E00FC
007E00FC
007E00FC
007C01FC
00FC01F8
00FC03F0
00F80FE0
01FFFF80
01FFF000
01F83C00
01F01E00
03F01F00
03F01F00
03F01F80
03E01F80
07E01F80
07E01F80
07E01F84
0FC01F8C
0FC01F98
0FC00FF0
FFFC0FE0
FFFC03C0
ENDCHAR

STARTCHAR S
ENCODING 83
SWIDTH 685 0
DWIDTH 26 0
BBX 24 28 2 0
BITMAP
003F00
00FFC3
03E077
03803F
07801E
0F001E
0F000E
0F000E
0F800C
0FC00C
0FF800
0FFE00
07FFC0
03FFE0
01FFF0
007FF8
000FFC
2003FC
6000FC
70007C
70007C
700078
F00078
F800F0
FC00F0
CF03E0
87FF80
00FC00
ENDCHAR

STARTCHAR T
ENCODING 84
SWIDTH 722 0
DWIDTH 27 0
BBX 27 28 3 0
BITMAP
0FFFFFE0
0FFFFFE0
1F0FC3E0
1E0FC1E0
3C0F80C0
381F80C0
301F80C0
601F80C0
603F0080
C03F0180
003F0000
003E0000
007E0000
007E0000
007E0000
007C0000
00FC0000
00FC0000
00FC0000
00F80000
01F80000
01F80000
01F80000
03F00000
03F00000
03F00000
7FFF0000
7FFF0000
ENDCHAR

STARTCHAR U
ENCODING 85
SWIDTH 833 0
DWIDTH 32 0
BBX 30 28 5 0
BITMAP
7FFE0FFC
7FFC0FF8
07E003E0
0FC001C0
0FC001C0
0FC00180
0F800180
1F800180
1F800300
1F800300
3F000300
3F000300
3F000600
3E000600
7E000600
7E000600
7E000C00
7C000C00
FC000C00
FC000C00
FC001800
FC001800
FC003000
7E007000
7E00E000
3F83C000
0FFF8000
03FC0000
ENDCHAR

STARTCHAR V
ENCODING 86
SWIDTH 741 0
DWIDTH 28 0
BBX 29 28 4 0
BITMAP
FFF01FF8
FFF03FF0
1F8007C0
1F800780
1F800700
1F800600
0F800E00
0F800C00
0F801800
0FC03800
0FC03000
0FC06000
0FC0E000
0FC0C000
07C1C000
07C18000
07E30000
07E70000
07E60000
07EC0000
07EC0000
03F80000
03F00000
03F00000
03E00000
03C00000
03C00000
03800000
ENDCHAR

STARTCHAR W
ENCODING 87
SWIDTH 944 0
DWIDTH 36 0
BBX 38 28 3 0
BITMAP
7FE3FFC3FC
FFE3FFC3FC
1F807E00E0
1F003E00E0
1F807E00C0
1F807E0180
1F80FE0180
0F80FE0300
0F81DE0300
0F81BE0600
0F83BE0600
0F833F0C00
0F873F1C00
0F861F1800
0F8C1F3800
0FCC1F3000
0FD81F7000
07D81F6000
07D01F6000
07F01FC000
07E01FC000
07E01F8000
07C01F0000
07C00F0000
07800E0000
07800E0000
07000C0000
03000C0000
ENDCHAR

STARTCHAR X
ENCODING 88
SWIDTH 741 0
DWIDTH 28 0
BBX 32 28 -1 0
BITMAP
03FFE3FF
03FFE3FF
007F00F8
003F00F0
001F00E0
001F81C0
001F8380
000FC700
000FCE00
0007DC00
0007F800
0007F000
0003F000
0003F000
0001F000
0003F800
00077800
000EFC00
001CFC00
00387C00
00707E00
00E03E00
01C03F00
03803F00
07801F80
1FC03F80
7FF1FFF0
FFF1FFF0
ENDCHAR

STARTCHAR Y
ENCODING 89
SWIDTH 704 0
DWIDTH 27 0
BBX 26 28 5 0
BITMAP
FFF07FC0
FFE0FF80
3F003E00
1F001C00
1F801800
1F803000
0FC07000
0FC0E000
07C0C000
07E1C000
07E38000
03F70000
03F60000
01FE0000
01FC0000
00F80000
01F80000
01F80000
01F80000
01F00000
03F00000
03F00000
03E00000
07E00000
07E00000
07E00000
7FFE0000
7FFC0000
ENDCHAR

STARTCHAR Z
ENCODING 90
SWIDTH 704 0
DWIDTH 27 0
BBX 27 28 1 0
BITMAP
00FFFFE0
01FFFFE0
01F80FE0
01E01FC0
03C03F80
03807F00
03007E00
0700FC00
0601FC00
0603F800
0007F000
000FE000
000FC000
001FC000
003F8000
007F0000
00FE0000
01FC0000
01F80300
03F80300
07F00700
0FE00600
1FC00E00
3F801E00
3F003C00
7E00FC00
FFFFFC00
FFFFF800
ENDCHAR

STARTCHAR bracketleft
ENCODING 91
SWIDTH 407 0
DWIDTH 15 0
BBX 18 34 0 -6
BITMAP
007FC0
007FC0
007C00
007800
00F800
00F800
00F800
00F000
01F000
01F000
01F000
03E000
03E000
03E000
03C000
07C000
07C000
07C000
078000
0F8000
0F8000
0F8000
1F0000
1F0000
1F0000
1E0000
3E0000
3E0000
3E0000
3C0000
7C0000
7C0000
7F8000
FF8000
ENDCHAR

STARTCHAR backslash
ENCODING 92
SWIDTH 606 0
DWIDTH 23 0
BBX 18 28 3 0
BITMAP
F00000
700000
380000
380000
1C0000
1E0000
0E0000
0F0000
070000
078000
038000
03C000
01C000
01E000
00E000
00F000
007000
007800
003800
001C00
001C00
000E00
000E00
000700
000780
000380
0003C0
0001C0
ENDCHAR

STARTCHAR bracketright
ENCODING 93
SWIDTH 407 0
DWIDTH 15 0
BBX 17 34 -2 -6
BITMAP
007F80
00FF80
000F80
001F00
001F00
001F00
001F00
003E00
003E00
003E00
003C00
007C00
007C00
007C00
00F800
00F800
00F800
00F800
01F000
01F000
01F000
01E000
03E000
03E000
03E000
03C000
07C000
07C000
07C000
0F8000
0F8000
0F8000
FF0000
FF0000
ENDCHAR

STARTCHAR asciicircum
ENCODING 94
SWIDTH 606 0
DWIDTH 23 0
BBX 17 13 5 15
BITMAP
018000
01C000
03C000
03E000
07E000
07F000
0F7800
1E7800
1E3C00
3C3C00
381E00
780E00
F00F80
ENDCHAR

STARTCHAR underscore
ENCODING 95
SWIDTH 500 0
DWIDTH 19 0
BBX 19 2 0 -5
BITMAP
FFFFE0
FFFFE0
ENDCHAR

STARTCHAR quoteleft
ENCODING 96
SWIDTH 259 0
DWIDTH 10 0
BBX 9 12 4 16
BITMAP
0380
0F80
1C00
3800
7000
7000
FC00
FE00
FE00
FE00
7E00
3C00
ENDCHAR

STARTCHAR a
ENCODING 97
SWIDTH 667 0
DWIDTH 25 0
BBX 21 18 2 0
BITMAP
01F1F0
07F9F0
0FCDE0
1F07E0
3E07E0
7E07C0
7C07C0
7C07C0
FC07C0
F80780
F80F80
F80F88
F81F18
F81F10
FC3F30
7CEFE0
3FCFC0
1F8F80
ENDCHAR

STARTCHAR b
ENCODING 98
SWIDTH 611 0
DWIDTH 23 0
BBX 19 27 2 0
BITMAP
1FE000
1FE000
07C000
07C000
07C000
07C000
0F8000
0F8000
0F8000
1F1F00
1F7F80
1F7FC0
3F87E0
3F03E0
3E03E0
3E03E0
7C03E0
7C03E0
7807E0
F807C0
F807C0
F80F80
F80F80
781F00
7C7C00
3FF800
07C000
ENDCHAR

STARTCHAR c
ENCODING 99
SWIDTH 537 0
DWIDTH 20 0
BBX 17 18 2 0
BITMAP
00FC00
03FF00
0F8380
1F0780
3E0F80
3E0F80
7C0F80
7C0200
FC0000
F80000
F80000
F80000
F80000
FC0300
7C0700
7E1C00
3FF800
0FE000
ENDCHAR

STARTCHAR d
ENCODING 100
SWIDTH 667 0
DWIDTH 25 0
BBX 24 28 2 0
BITMAP
000007
0001FE
00007E
00003E
00003C
00007C
00007C
00007C
0000F8
0000F8
03F8F8
07FDF0
0FC6F0
1F83F0
3F03E0
7E03E0
7E03E0
FC03E0
FC07C0
FC07C0
F807C0
F80F86
F80F8C
F81F8C
FC3F98
7E77F0
3FCFE0
1F87C0
ENDCHAR

STARTCHAR e
ENCODING 101
SWIDTH 519 0
DWIDTH 20 0
BBX 17 18 2 0
BITMAP
007C00
03FF00
0F8F80
1F0F80
3E0F80
3E0F80
7C1F00
7C3E00
FC7C00
FDF000
FF0000
F80000
F80000
F80300
7C0600
7E1C00
3FF800
0FE000
ENDCHAR

STARTCHAR f
ENCODING 102
SWIDTH 389 0
DWIDTH 15 0
BBX 21 35 -1 -7
BITMAP
0003E0
000FF0
001CF8
003CF8
003C70
007800
007800
00F800
00F000
01F000
0FFF00
0FFF00
01E000
03E000
03E000
03E000
03C000
07C000
07C000
07C000
07C000
0F8000
0F8000
0F8000
0F8000
1F0000
1F0000
1F0000
3F0000
3E0000
3E0000
7E0000
7C0000
FC0000
800000
ENDCHAR

STARTCHAR g
ENCODING 103
SWIDTH 611 0
DWIDTH 23 0
BBX 25 27 -1 -7
BITMAP
00000700
00001F80
007FF780
00F9F300
03F07800
03E07C00
07C07C00
07C07C00
07C07C00
07C07C00
03C0F800
03E1F800
01F3F000
07FFC000
0E000000
1C000000
1FE00000
1FFFC000
1FFFE000
07FFF000
0FFFF000
7C01F000
F800F000
F800F000
F801E000
7E0FC000
1FFE0000
ENDCHAR

STARTCHAR h
ENCODING 104
SWIDTH 685 0
DWIDTH 26 0
BBX 23 27 1 0
BITMAP
07F800
0FF800
01F800
01F000
01F000
01F000
03E000
03E000
03E000
03E1E0
07C7F0
07CFF8
07D8F8
0FB0F8
0FE0F8
0FC0F8
0F81F0
1F81F0
1F01F0
1F03E0
3E03E2
3E03E6
3E07C6
7C07CC
7C07D8
7C07F0
F803E0
ENDCHAR

STARTCHAR i
ENCODING 105
SWIDTH 389 0
DWIDTH 15 0
BBX 11 28 3 0
BITMAP
0780
0FC0
0FC0
0FC0
0FC0
0780
0000
0000
0000
0000
1F80
FF80
1F00
1F00
1F00
1F00
3E00
3E00
3E00
7C00
7C00
7C60
78C0
F8C0
F980
FF00
7E00
3800
ENDCHAR

STARTCHAR j
ENCODING 106
SWIDTH 370 0
DWIDTH 14 0
BBX 18 35 -5 -7
BITMAP
000780
000FC0
000FC0
000FC0
000FC0
000780
000000
000000
000000
000000
000F80
00FF80
000F80
001F00
001F00
001F00
001F00
001E00
003E00
003E00
003E00
003C00
007C00
007C00
007C00
007800
00F800
00F800
00F000
00F000
71F000
F1E000
FBC000
FF8000
3E0000
ENDCHAR

STARTCHAR k
ENCODING 107
SWIDTH 648 0
DWIDTH 25 0
BBX 21 28 2 -1
BITMAP
0FF800
0FF000
01F000
01F000
01E000
03E000
03E000
03E000
07C000
07C1E0
07C7F0
078FF8
0FB8F8
0FF078
0FE078
1FC0F0
1F80E0
1F03C0
1F7F00
3E7C00
3E0E00
3E0F00
7C0F18
7C0F18
7C1F30
780FE0
F80FC0
F80780
ENDCHAR

STARTCHAR l
ENCODING 108
SWIDTH 389 0
DWIDTH 15 0
BBX 12 29 3 -1
BITMAP
0FF0
1FF0
03E0
03E0
03E0
07C0
07C0
07C0
07C0
0F80
0F80
0F80
1F00
1F00
1F00
1F00
3E00
3E00
3E00
7C00
7C00
7C00
7CC0
F8C0
F980
FB00
FE00
7C00
1000
ENDCHAR

STARTCHAR m
ENCODING 109
SWIDTH 944 0
DWIDTH 36 0
BBX 33 19 1 -1
BITMAP
0043C07800
7FCFE1FC00
3F9FF3FE00
0FB1F63E00
0FE1FC3E00
0FC1F83E00
0F81F03E00
1F81F07C00
1F03E07C00
1F03E07C00
3E03E0F800
3E07C0F800
3E07C0F980
3E07C0F180
7C0781F300
7C0F81F600
7C0F81FC00
F81F80F800
0000006000
ENDCHAR

STARTCHAR n
ENCODING 110
SWIDTH 685 0
DWIDTH 26 0
BBX 23 18 2 0
BITMAP
0383C0
7F8FE0
1F9FF0
0F31F0
0F61F0
1FC1F0
1F81F0
1F03E0
3F03E0
3E03E0
3E07C0
7C07C6
7C07CC
7C0F8C
7C0F98
F80FB0
F807F0
F807C0
ENDCHAR

STARTCHAR o
ENCODING 111
SWIDTH 574 0
DWIDTH 22 0
BBX 19 18 1 0
BITMAP
01FE00
07CF00
1F8380
1F03C0
3E03E0
7E03E0
7C03E0
FC03E0
FC03E0
FC07E0
F807E0
F80FC0
F80FC0
781F80
781F00
3C3E00
1FF800
03E000
ENDCHAR

STARTCHAR p
ENCODING 112
SWIDTH 648 0
DWIDTH 25 0
BBX 26 25 -4 -7
BITMAP
00023C00
03FE7F00
00FCFF80
003F0FC0
007E07C0
007E07C0
007C07C0
00F807C0
00F807C0
00F80FC0
00F00FC0
01F00F80
01F01F80
01F03F00
03F87E00
03ECFC00
03EFF800
07C7E000
07C00000
07C00000
07800000
0F800000
0F800000
7FF00000
FFF00000
ENDCHAR

STARTCHAR q
ENCODING 113
SWIDTH 630 0
DWIDTH 24 0
BBX 21 25 2 -7
BITMAP
007C18
03FE38
078770
1F03F0
3F03F0
3E03E0
7E03E0
7C03E0
FC03C0
FC07C0
F807C0
F80FC0
F80F80
F81F80
FC3F80
7FEF00
3FDF00
0F1F00
003E00
003E00
003E00
003E00
007E00
03FFC0
07FF80
ENDCHAR

STARTCHAR r
ENCODING 114
SWIDTH 519 0
DWIDTH 20 0
BBX 18 18 2 0
BITMAP
7F0F80
FF3FC0
1F77C0
1E47C0
1EC7C0
1E8380
1F8000
1D0000
3F0000
3E0000
3E0000
3E0000
7C0000
7C0000
7C0000
F80000
F80000
F80000
ENDCHAR

STARTCHAR s
ENCODING 115
SWIDTH 481 0
DWIDTH 18 0
BBX 17 18 1 0
BITMAP
03FE00
0F8F00
1E0780
1E0F80
3E0F80
3F0700
3FC000
1FF800
1FFE00
07FE00
01FF00
783F00
F81F00
F81E00
F01E00
703C00
3FF800
0FC000
ENDCHAR

STARTCHAR t
ENCODING 116
SWIDTH 407 0
DWIDTH 15 0
BBX 13 24 3 0
BITMAP
07E0
07C0
07C0
07C0
0F80
0F80
FFF8
FFF0
1F00
1F00
1F00
3E00
3E00
3E00
7C00
7C00
7C00
7C20
F860
F8C0
F980
FF00
7E00
3800
ENDCHAR

STARTCHAR u
ENCODING 117
SWIDTH 685 0
DWIDTH 26 0
BBX 22 18 3 0
BITMAP
FF81F0
FF81F0
1F01F0
1F03E0
1F03E0
3E03E0
3E07C0
3E07C0
7C07C0
7C0F80
7C0F80
F81F8C
F83F18
F86F18
F8DF30
FF9FE0
7F0FC0
3C0700
ENDCHAR

STARTCHAR v
ENCODING 118
SWIDTH 556 0
DWIDTH 21 0
BBX 17 19 3 0
BITMAP
000200
FF0700
FF0F80
3E0780
3E0380
3E0180
3C0180
7C0180
7C0100
7C0300
780300
F80200
F80600
F80C00
F80C00
F81800
7C7000
3FE000
1F8000
ENDCHAR

STARTCHAR w
ENCODING 119
SWIDTH 833 0
DWIDTH 32 0
BBX 28 19 2 0
BITMAP
00000040
7F81F0E0
FF81F1F0
1F03F0F0
1F03E0F0
1F03E070
1E03E030
3E07C030
3E07C030
3E07C060
7C0FC060
7C0F8040
7C1F80C0
F81F8180
F8378180
F86F8300
F9C7CE00
7F87FC00
3E03F000
ENDCHAR

STARTCHAR x
ENCODING 120
SWIDTH 574 0
DWIDTH 22 0
BBX 22 18 0 0
BITMAP
07C078
0FE1FC
1FE1FC
1BF37C
31F638
31FC00
00FC00
00F800
00F800
007C00
007C00
007C00
00FE08
71BE18
F9BF30
FF1FE0
FE1FC0
7C0F80
ENDCHAR

STARTCHAR y
ENCODING 121
SWIDTH 519 0
DWIDTH 20 0
BBX 22 25 -3 -7
BITMAP
01E03C
03F03C
07F03C
0CF83C
18781C
087C18
007C18
003C30
003C30
003E60
003E60
001EC0
001FC0
001F80
001F00
001F00
000E00
000C00
001800
303000
787000
F8E000
7B8000
7F0000
1C0000
ENDCHAR

STARTCHAR z
ENCODING 122
SWIDTH 519 0
DWIDTH 20 0
BBX 20 18 0 0
BITMAP
01E030
07FC30
0FFFE0
1FFFE0
303CC0
100380
000F00
003E00
00F800
03E000
078000
1E0000
308060
6FF9C0
7FFF80
CFFF00
C1FE00
C03800
ENDCHAR

STARTCHAR braceleft
ENCODING 123
SWIDTH 407 0
DWIDTH 15 0
BBX 16 35 3 -7
BITMAP
000F
0038
00F0
00F0
01E0
03E0
03E0
03E0
03E0
07E0
07E0
07C0
07C0
0780
0F00
0E00
3800
C000
7800
3C00
1E00
1E00
1E00
3E00
3E00
7E00
7C00
FC00
F800
F800
F000
F000
7000
3800
1E00
ENDCHAR

STARTCHAR bar
ENCODING 124
SWIDTH 606 0
DWIDTH 23 0
BBX 3 35 11 -7
BITMAP
E0
E0
E0
E0
E0
E0
E0
E0
E0
E0
E0
E0
E0
E0
E0
E0
E0
E0
E0
E0
E0
E0
E0
E0
E0
E0
E0
E0
E0
E0
E0
E0
E0
E0
E0
ENDCHAR

STARTCHAR braceright
ENCODING 125
SWIDTH 407 0
DWIDTH 15 0
BBX 16 35 -2 -7
BITMAP
0078
001E
000E
000F
000F
001F
001F
003F
003E
003E
007C
007C
0078
0078
0038
003C
000E
0003
001C
0070
00F0
01E0
03E0
03E0
07E0
07E0
07C0
07C0
07C0
07C0
0780
0F00
0E00
3C00
F000
ENDCHAR

STARTCHAR asciitilde
ENCODING 126
SWIDTH 606 0
DWIDTH 23 0
BBX 21 6 3 10
BITMAP
1F0018
7FE010
7FFC30
C1FFF0
C03FE0
800FC0
ENDCHAR

STARTCHAR space
ENCODING 160
SWIDTH 287 0
DWIDTH 13 0
BBX 0 0 0 0
BITMAP
ENDCHAR

STARTCHAR Aogonek
ENCODING 161
SWIDTH 741 0
DWIDTH 28 0
BBX 29 35 -2 -7
BITMAP
00001C00
00001C00
00003C00
00007E00
00007E00
0000FE00
0001FE00
0001BE00
00033E00
00073E00
00063E00
000C3F00
000C3F00
00183F00
00383F00
00303F00
00601F00
00FFFF00
00FFFF80
01801F80
03801F80
03001F80
07001F80
06000F80
0E000F80
3F001FC0
FFC0FFF8
FFC0FBF8
00000600
00000E00
00000E00
00000F00
00000F80
000007F0
000003F0
ENDCHAR

STARTCHAR afii240
ENCODING 162
SWIDTH 500 0
DWIDTH 19 0
BBX 22 17 -2 0
BITMAP
0FFBFC
03F0E0
03E0C0
03E100
03E200
03C600
07DE00
07BE00
07BF00
0FDF00
0F9F00
0F9F00
0F0F80
1F0F80
1F0F80
3F1FC0
FFBFF0
ENDCHAR

STARTCHAR Rcommaaccent
ENCODING 163
SWIDTH 796 0
DWIDTH 30 0
BBX 30 36 -1 -8
BITMAP
03FFFF80
03FFFFE0
003F03F8
003F00F8
003E00FC
007E00FC
007E00FC
007E00FC
007C01FC
00FC01F8
00FC03F0
00FC0FE0
01FFFF80
01FFF000
01F83C00
01F81E00
03F01F00
03F01F00
03F01F80
03E01F80
07E01F80
07E01F80
07E01F84
07C01F8C
0FC01F98
0FC00FF0
7FFC0FF0
FFFC03C0
00000000
00000000
001E0000
001E0000
001E0000
00060000
001C0000
00200000
ENDCHAR

STARTCHAR currency
ENCODING 164
SWIDTH 574 0
DWIDTH 22 0
BBX 19 19 3 3
BITMAP
200080
73F9C0
FFFFE0
7FFFC0
3E1F80
3C0780
7803C0
7801C0
7001C0
7001C0
7001C0
7801C0
3803C0
3C0780
3F1F80
7FFFC0
FFFFE0
73F9C0
200080
ENDCHAR

STARTCHAR Itilde
ENCODING 165
SWIDTH 444 0
DWIDTH 17 0
BBX 20 37 0 0
BITMAP
003C10
007F90
00FFF0
009FE0
0083C0
000000
000000
000000
000000
03FFF0
03FFE0
007F00
003E00
007E00
007E00
007E00
00FC00
00FC00
00FC00
00F800
01F800
01F800
01F800
01F000
03F000
03F000
03F000
03E000
07E000
07E000
07E000
07C000
0FC000
0FC000
1FC000
FFFC00
FFF800
ENDCHAR

STARTCHAR Lcommaaccent
ENCODING 166
SWIDTH 704 0
DWIDTH 27 0
BBX 26 36 0 -8
BITMAP
03FFF800
03FFF000
003F0000
003F0000
007E0000
007E0000
007E0000
007C0000
00FC0000
00FC0000
00FC0000
00F80000
01F80000
01F80000
01F80000
01F00000
03F00000
03F00000
03F000C0
07E00080
07E00180
07E00380
07C00380
0FC00700
0FC00F00
0FC03F00
FFFFFF00
FFFFFE00
00000000
00000000
00780000
00780000
00780000
00180000
00700000
00800000
ENDCHAR

STARTCHAR section
ENCODING 167
SWIDTH 500 0
DWIDTH 19 0
BBX 20 35 0 -7
BITMAP
000F80
003FE0
0071F0
00E1F0
00E1F0
01E1F0
01E0E0
01F000
01F800
00F800
00FC00
01FE00
037E00
063F00
0E1F00
1E1F80
1E0F80
1F0F80
1F0780
1F8780
0F8700
0FC700
07CE00
07EC00
03F000
03F000
01F800
00F800
20F800
787800
F87800
F87000
F8F000
79E000
3F8000
ENDCHAR

STARTCHAR hungarumlaut
ENCODING 168
SWIDTH 333 0
DWIDTH 13 0
BBX 15 6 4 21
BITMAP
0E1E
1F3E
3F3E
7E7C
78F0
E1C0
ENDCHAR

STARTCHAR Scaron
ENCODING 169
SWIDTH 685 0
DWIDTH 26 0
BBX 24 37 2 0
BITMAP
001006
00181C
001C78
000EF0
000FE0
000FC0
000F80
000000
000000
003F00
00FFC3
03E077
03803F
07801E
0F001E
0F000E
0F000E
0F800C
0FC00C
0FF800
0FFE00
07FFC0
03FFE0
01FFF0
007FF8
000FF8
2003FC
6000FC
70007C
70007C
700078
F00078
F800F0
FC00F0
DF03E0
87FF80
00FC00
ENDCHAR

STARTCHAR Emacron
ENCODING 170
SWIDTH 741 0
DWIDTH 28 0
BBX 29 36 0 0
BITMAP
000FFF80
000FFF80
001FFF80
00000000
00000000
00000000
00000000
00000000
03FFFFF8
07FFFFF8
007F00F8
003E0070
007E0070
007E0030
007E0030
00FC0030
00FC0C20
00FC0C00
00FC1800
01F81800
01F87800
01FFF800
01FFF000
03F0F000
03F07000
03F07000
07E06000
07E06060
07E060C0
07E001C0
0FC00180
0FC00380
0FC00780
1FC03F00
FFFFFF00
FFFFFF00
ENDCHAR

STARTCHAR Gcommaaccent
ENCODING 171
SWIDTH 815 0
DWIDTH 31 0
BBX 28 35 3 -7
BITMAP
0007F000
003FFC60
00FC0EC0
01F007C0
07E003C0
07C003C0
0FC001C0
1F8001C0
3F800180
3F000180
7F000180
7E000000
7E000000
FE000000
FE000000
FC00FFF0
FC01FFE0
FC001F80
FC001F00
FC003F00
FC003F00
7C003E00
7E007E00
3E007E00
3F00EE00
1F83CC00
07FF0C00
01F80C00
00000000
00600000
00F00000
00F00000
00300000
00200000
01C00000
ENDCHAR

STARTCHAR afii237
ENCODING 172
SWIDTH 611 0
DWIDTH 23 0
BBX 23 25 3 0
BITMAP
1FFFFE
1FFFFE
3C3F1E
303E0C
207E04
607E04
407C04
00FC00
00FC00
00F800
01F800
FFFFF0
01F000
01F000
03F000
03F000
03E000
07E000
07E000
07C000
0FC000
0FC000
0FC000
1FC000
FFF800
ENDCHAR

STARTCHAR hyphen
ENCODING 173
SWIDTH 333 0
DWIDTH 13 0
BBX 13 3 0 7
BITMAP
7FF8
FFF0
FFF0
ENDCHAR

STARTCHAR Zcaron
ENCODING 174
SWIDTH 704 0
DWIDTH 27 0
BBX 27 38 1 0
BITMAP
00020060
00030180
00018700
0001DE00
0001FC00
0001F800
0000F000
00000000
00000000
00000000
00FFFFE0
01FFFFE0
01F80FE0
01E01FC0
03C03F80
03807F00
03007E00
0700FC00
0601FC00
0603F800
0007F000
000FE000
000FC000
001FC000
003F8000
007F0000
00FE0000
01FC0000
01F80300
03F80300
07F00700
0FE00600
1FC00E00
3F801E00
3F003C00
7E00FC00
FFFFFC00
FFFFF800
ENDCHAR

STARTCHAR macron
ENCODING 175
SWIDTH 333 0
DWIDTH 13 0
BBX 14 3 3 22
BITMAP
7FFC
FFFC
FFF8
ENDCHAR

STARTCHAR degree
ENCODING 176
SWIDTH 400 0
DWIDTH 15 0
BBX 13 13 4 14
BITMAP
0F80
3FE0
7FF0
7070
E038
E038
E038
E038
F038
78F0
3FE0
1FC0
0F80
ENDCHAR

STARTCHAR aogonek
ENCODING 177
SWIDTH 667 0
DWIDTH 25 0
BBX 21 25 3 -7
BITMAP
03F1E0
07FBE0
0F8DE0
1F0FE0
3E07C0
7E07C0
7C07C0
7C0F80
FC0F80
F80F80
F80F80
F81F10
F81F18
F83F30
F83E60
7CDFC0
3FDFC0
1F0F00
001800
003800
003800
003C00
003E00
001FC0
000FC0
ENDCHAR

STARTCHAR ogonek
ENCODING 178
SWIDTH 333 0
DWIDTH 13 0
BBX 8 8 1 -8
BITMAP
30
60
E0
E0
F0
F8
7F
1E
ENDCHAR

STARTCHAR rcommaaccent
ENCODING 179
SWIDTH 519 0
DWIDTH 20 0
BBX 18 26 2 -8
BITMAP
7F8F80
7F1FC0
1F37C0
0F67C0
0FC7C0
0E8380
1F8000
1F8000
1F0000
1F0000
3E0000
3E0000
3E0000
7C0000
7C0000
7C0000
7C0000
F80000
000000
000000
1E0000
1E0000
1E0000
060000
0C0000
300000
ENDCHAR

STARTCHAR acute
ENCODING 180
SWIDTH 333 0
DWIDTH 13 0
BBX 9 6 6 21
BITMAP
0F00
0F80
1F00
3E00
7800
E000
ENDCHAR

STARTCHAR itilde
ENCODING 181
SWIDTH 389 0
DWIDTH 15 0
BBX 14 27 3 0
BITMAP
1E04
3FC8
7FF8
4FF0
41E0
0000
0000
0000
0000
7F80
FF80
1F00
1F00
1F00
1E00
3E00
3E00
3E00
7C00
7C00
7C60
78C0
F8C0
F980
FF00
7E00
3800
ENDCHAR

STARTCHAR lcommaaccent
ENCODING 182
SWIDTH 389 0
DWIDTH 15 0
BBX 13 36 2 -8
BITMAP
07F8
0FF8
01F0
01F0
01F0
03E0
03E0
03E0
03E0
07C0
07C0
07C0
0F80
0F80
0F80
0F80
1F00
1F00
1F00
1E00
3E00
3E00
3E60
7C60
7CC0
7D80
7F80
3E00
0800
0000
7800
7800
7800
1800
3000
C000
ENDCHAR

STARTCHAR caron
ENCODING 183
SWIDTH 333 0
DWIDTH 13 0
BBX 13 7 5 21
BITMAP
8018
4060
61C0
7780
7F00
3E00
3C00
ENDCHAR

STARTCHAR commaaccent
ENCODING 184
SWIDTH 333 0
DWIDTH 13 0
BBX 5 6 4 -8
BITMAP
78
78
78
18
30
C0
ENDCHAR

STARTCHAR scaron
ENCODING 185
SWIDTH 481 0
DWIDTH 18 0
BBX 20 28 1 0
BITMAP
008010
008060
00C1C0
00E780
00FF00
007E00
007C00
000000
000000
000000
03FE00
0F8F00
1F0780
1E0F80
3E0F80
3F0700
3FC000
3FF800
1FFE00
07FE00
01FF00
783F00
F81F00
F81E00
F01E00
703C00
3FF800
0FC000
ENDCHAR

STARTCHAR emacron
ENCODING 186
SWIDTH 519 0
DWIDTH 20 0
BBX 19 25 2 0
BITMAP
03FFE0
07FFE0
07FFC0
000000
000000
000000
000000
00FE00
03FF00
0F8F80
1F0F80
3E0F80
3E0F80
7C1F00
7C3E00
FC7C00
FDF000
FF0000
F80000
F80000
F80300
7C0600
7E1C00
3FF800
0FE000
ENDCHAR

STARTCHAR gcommaaccent
ENCODING 187
SWIDTH 611 0
DWIDTH 23 0
BBX 25 34 -1 -7
BITMAP
0000C000
00010000
00030000
0003C000
0003C000
00018000
00000000
00000700
00001F80
007FF780
00F8F300
01F07800
03E07C00
07E07C00
07C07C00
07C07C00
07C07C00
03C0F800
03E0F800
01F3F000
07FFC000
0E000000
1C000000
1FE00000
1FFFC000
1FFFE000
07FFF000
0FFFF000
7C00F000
F800F000
F800F000
F801E000
7E07C000
1FFE0000
ENDCHAR

STARTCHAR afii253
ENCODING 188
SWIDTH 278 0
DWIDTH 11 0
BBX 11 22 1 0
BITMAP
0040
00C0
01C0
0380
0F80
3FE0
6FE0
1F00
1F00
1E00
3E00
FFC0
3E00
3C00
7C00
7C00
7800
7880
F900
FA00
FC00
7800
ENDCHAR

STARTCHAR afii238
ENCODING 189
SWIDTH 775 0
DWIDTH 29 0
BBX 30 26 -1 0
BITMAP
03FF07C0
007E1FE0
007E70F0
007EC078
007D807C
007F007C
00FE007C
00FC007C
00F800FC
00F800FC
01F800FC
01F800FC
01F001FC
03F001F8
03F001F8
03E001F8
03E003F0
07E003F0
07E003E0
07C007E0
0FC1C7C0
0FC3E780
0F83E700
1F83CE00
1FC3CC00
FFF1F000
ENDCHAR

STARTCHAR zcaron
ENCODING 190
SWIDTH 519 0
DWIDTH 20 0
BBX 22 28 0 0
BITMAP
00400C
006030
0060E0
0033C0
003F80
003F00
003E00
003E00
000000
000000
01F030
07FC30
0FFFE0
1FFF60
303CC0
100380
000F00
003E00
00F800
03E000
078000
1E0000
308060
6FF9C0
7FFF80
CFFF00
C1FE00
C03800
ENDCHAR

STARTCHAR afii254
ENCODING 191
SWIDTH 477 0
DWIDTH 18 0
BBX 19 25 -1 -8
BITMAP
3FC3C0
0FC7E0
0F8FE0
0F93E0
0FA3C0
0F47C0
1F47C0
1F87C0
1F0F80
3F0F80
3E0F80
3E0F00
3C1F00
7C1F00
7C1E00
783E00
F83E00
003C00
007C00
007800
007800
0C7000
1EF000
1CE000
0F8000
ENDCHAR

STARTCHAR Amacron
ENCODING 192
SWIDTH 741 0
DWIDTH 28 0
BBX 29 36 -2 0
BITMAP
0000FFF8
0001FFF0
0001FFF0
00000000
00000000
00000000
00000000
00000000
00000C00
00001E00
00003E00
00003E00
00007E00
0000FE00
0000FE00
0001BE00
0003BF00
00033F00
00073F00
00063F00
000C3F00
001C1F00
00181F00
00301F00
00601F80
007FFF80
00FFFF80
01C01F80
01800F80
03000F80
03000F80
07000FC0
0F000FC0
1F000FC0
7FE07FF8
FFC0FFF8
ENDCHAR

STARTCHAR Aacute
ENCODING 193
SWIDTH 741 0
DWIDTH 28 0
BBX 29 38 -2 0
BITMAP
00000180
000003C0
000007C0
00000FC0
00000F00
00001C00
00003000
00000000
00000000
00000000
00000C00
00001E00
00003E00
00003E00
00007E00
0000FE00
0000FE00
0001BE00
0003BF00
00033F00
00073F00
00063F00
000C3F00
001C1F00
00181F00
00301F00
00601F80
007FFF80
00FFFF80
01C01F80
01800F80
03000F80
03000F80
07000FC0
0F000FC0
1F000FC0
7FE07FF8
FFC0FFF8
ENDCHAR

STARTCHAR Acircumflex
ENCODING 194
SWIDTH 741 0
DWIDTH 28 0
BBX 29 38 -2 0
BITMAP
00000F80
00001F80
00003F80
00007B80
0000E1C0
000180C0
00020040
00000000
00000000
00000000
00000C00
00001E00
00003E00
00003E00
00007E00
0000FE00
0000FE00
0001BE00
0003BF00
00033F00
00073F00
00063F00
000C3F00
001C1F00
00181F00
00301F00
00601F80
007FFF80
00FFFF80
01C01F80
01800F80
03000F80
03000F80
07000FC0
0F000FC0
1F000FC0
7FE07FF8
FFC0FFF8
ENDCHAR

STARTCHAR Atilde
ENCODING 195
SWIDTH 741 0
DWIDTH 28 0
BBX 29 37 -2 0
BITMAP
00007C10
0000FF20
0001FFE0
00013FC0
00010780
00000000
00000000
00000000
00000000
00000C00
00001E00
00003E00
00003E00
00007E00
0000FE00
0000FE00
0001BE00
0003BF00
00033F00
00073F00
00063F00
000C3F00
001C1F00
00181F00
00301F00
00601F80
007FFF80
00FFFF80
01C01F80
01800F80
03000F80
03000F80
07000FC0
0F000FC0
1F000FC0
7FE07FF8
FFC0FFF8
ENDCHAR

STARTCHAR Adieresis
ENCODING 196
SWIDTH 741 0
DWIDTH 28 0
BBX 29 37 -2 0
BITMAP
0000E1C0
0001F3E0
0001F3E0
0001F3E0
0000E1C0
00000000
00000000
00000000
00000000
00001C00
00001C00
00003C00
00007C00
00007E00
0000FE00
0000FE00
0001BE00
0003BE00
00033E00
00063E00
000E3F00
000C3F00
001C1F00
00181F00
00301F00
00601F00
007FFF00
00FFFF00
01C01F80
01801F80
03000F80
07000F80
07000F80
0F000F80
1F000FC0
7FE07FF8
FFC0FFF0
ENDCHAR

STARTCHAR Aring
ENCODING 197
SWIDTH 741 0
DWIDTH 28 0
BBX 29 38 -2 0
BITMAP
00001E00
00003F00
00006180
00006180
00006180
00002380
00003F00
00000E00
00000000
00000000
00001C00
00001C00
00003C00
00007E00
00007E00
0000FE00
0000FE00
0001BE00
0003BE00
00033E00
00063F00
000E3F00
000C3F00
00183F00
00383F00
00301F00
00601F00
007FFF80
00FFFF80
01C01F80
01801F80
03001F80
07000F80
06000F80
0E000FC0
3F001FC0
FFC0FFF8
FFC0FFF8
ENDCHAR

STARTCHAR AE
ENCODING 198
SWIDTH 889 0
DWIDTH 34 0
BBX 37 28 -4 0
BITMAP
0001FFFFF8
0001FFFFF8
00003BE070
00003BE030
000077C030
000067C030
0000CFC030
0001CFC030
00038F8230
00030F8600
00071F8600
000E1F0E00
000C1FFC00
001C3FFC00
00383F3C00
00303E1C00
007FFE1800
00FFFE1800
00C07E1820
01807C1060
03807C0060
0300FC00E0
0600F800C0
0E00F801C0
1C01F803C0
3C01F80FC0
FF8FFFFFC0
FF0FFFFF80
ENDCHAR

STARTCHAR Iogonek
ENCODING 199
SWIDTH 444 0
DWIDTH 17 0
BBX 19 35 0 -7
BITMAP
03FFE0
03FFE0
007F00
007E00
007E00
007E00
00FC00
00FC00
00FC00
00F800
01F800
01F800
01F800
01F000
03F000
03F000
03F000
03E000
07E000
07E000
07E000
07C000
0FC000
0FC000
0FC000
1FC000
FFF800
F7F800
0C0000
1C0000
1C0000
1E0000
1F0000
0FE000
07E000
ENDCHAR

STARTCHAR Ccaron
ENCODING 200
SWIDTH 759 0
DWIDTH 29 0
BBX 26 37 4 0
BITMAP
000C0380
00040E00
00063C00
0007F800
0007F000
0007E000
0003C000
00000000
00000000
001FE000
007FF840
01FC1CC0
03F007C0
07E007C0
0FC003C0
1F800380
1F800180
3F000180
3F000180
7E000180
7E000000
7E000000
FE000000
FC000000
FC000000
FC000000
FC000000
FC000000
FC000200
FC000600
7E000E00
7E000C00
3F001800
3F803000
1FE0E000
07FFC000
01FF0000
ENDCHAR

STARTCHAR Eacute
ENCODING 201
SWIDTH 741 0
DWIDTH 28 0
BBX 29 38 0 0
BITMAP
00000600
00000F80
00001F80
00001F00
00003E00
00007000
0000C000
00000000
00000000
00000000
03FFFFF8
07FFFFF8
007F00F8
003E0070
007E0070
007E0030
007E0030
00FC0030
00FC0C20
00FC0C00
00FC1800
01F81800
01F87800
01FFF800
01FFF000
03F0F000
03F07000
03F07000
07E06000
07E06060
07E060C0
07E001C0
0FC00180
0FC00380
0FC00780
1FC03F00
FFFFFF00
FFFFFF00
ENDCHAR

STARTCHAR Eogonek
ENCODING 202
SWIDTH 741 0
DWIDTH 28 0
BBX 29 35 0 -7
BITMAP
07FFFFF8
07FFFFF8
007F01F0
007E00F0
007E0070
007C0070
00FC0060
00FC0060
00FC0C60
00F81800
01F81800
01F83800
01F07800
03FFF000
03FFF000
03F0F000
03F07000
07E06000
07E06000
07E060C0
07C040C0
0FC00180
0FC00380
0FC00780
1F800F00
1F803F00
FFFFFF00
FFFFBE00
00006000
0000E000
0000E000
0000F000
0000F800
00007F00
00003F00
ENDCHAR

STARTCHAR Edieresis
ENCODING 203
SWIDTH 741 0
DWIDTH 28 0
BBX 29 37 0 0
BITMAP
00038700
0007CF80
0007CF80
0007CF80
00038700
00000000
00000000
00000000
00000000
07FFFFF8
07FFFFF0
007F01F0
007E00F0
007E0070
007E0060
00FC0060
00FC0060
00FC0860
00FC1800
01F81800
01F83800
01F87000
01FFF000
03FFF000
03F0F000
03F06000
07E06000
07E06000
07E060C0
07E04180
0FC00180
0FC00380
0FC00700
0F800F00
1FC03F00
FFFFFE00
FFFFFE00
ENDCHAR

STARTCHAR Edotaccent
ENCODING 204
SWIDTH 741 0
DWIDTH 28 0
BBX 29 37 0 0
BITMAP
00003800
00007C00
00007C00
00007C00
00003800
00000000
00000000
00000000
00000000
03FFFFF8
07FFFFF8
007F00F8
003E0078
007E0070
007E0030
007E0030
00FC0030
00FC0C20
00FC0C00
00FC1C00
01F81800
01F87800
01FFF800
01FFF000
03F0F000
03F07000
03F07000
03E06000
07E06060
07E060C0
07E001C0
0FC00180
0FC00380
0FC00780
1FC03F80
FFFFFF00
FFFFFF00
ENDCHAR

STARTCHAR Iacute
ENCODING 205
SWIDTH 444 0
DWIDTH 17 0
BBX 20 38 0 0
BITMAP
000180
0007C0
0007C0
000FC0
001F00
001C00
003000
000000
000000
000000
03FFF0
03FFE0
007F00
003E00
007E00
007E00
007E00
00FC00
00FC00
00FC00
00F800
01F800
01F800
01F800
01F000
03F000
03F000
03F000
03E000
07E000
07E000
07E000
07C000
0FC000
0FC000
1FC000
FFFC00
FFF800
ENDCHAR

STARTCHAR Icircumflex
ENCODING 206
SWIDTH 444 0
DWIDTH 17 0
BBX 20 38 0 0
BITMAP
0003E0
0007E0
000FE0
001EE0
003870
006030
018010
000000
000000
000000
03FFF0
03FFE0
007F00
003E00
007E00
007E00
007E00
00FC00
00FC00
00FC00
00F800
01F800
01F800
01F800
01F000
03F000
03F000
03F000
03E000
07E000
07E000
07E000
07C000
0FC000
0FC000
1FC000
FFFC00
FFF800
ENDCHAR

STARTCHAR Imacron
ENCODING 207
SWIDTH 444 0
DWIDTH 17 0
BBX 20 36 0 0
BITMAP
01FFF0
01FFF0
01FFF0
000000
000000
000000
000000
000000
03FFF0
03FFE0
007F00
003E00
007E00
007E00
007E00
00FC00
00FC00
00FC00
00F800
01F800
01F800
01F800
01F000
03F000
03F000
03F000
03E000
07E000
07E000
07E000
07C000
0FC000
0FC000
1FC000
FFFC00
FFF800
ENDCHAR

STARTCHAR Eth
ENCODING 208
SWIDTH 833 0
DWIDTH 32 0
BBX 31 28 -1 0
BITMAP
03FFFE00
07FFFFC0
007F03E0
007E01F8
007E00F8
007E00FC
007C007C
00FC007E
00FC007E
00FC007E
01F8007E
01F8007E
01F8007E
1FFFC07E
1FFFC0FE
03F000FE
03F000FC
03E001FC
07E001FC
07E001F8
07E003F8
07C003F0
0FC007E0
0FC00FC0
0F801F80
1FC07F00
FFFFFC00
FFFFC000
ENDCHAR

STARTCHAR Ncommaaccent
ENCODING 209
SWIDTH 852 0
DWIDTH 32 0
BBX 33 36 1 -8
BITMAP
03FE00FF80
03FE01FF80
007F003E00
003F001C00
007F001800
007F801800
006F801800
006FC03800
00CFC03000
00C7E03000
00C7E03000
00C3F06000
0183F06000
0181F86000
0181F86000
0380FCC000
0300FCC000
0300FCC000
03007EC000
06007F8000
06003F8000
06003F8000
06001F8000
0E001F0000
0E000F0000
3F000F0000
FFE0070000
FFC0060000
0000000000
0000000000
001E000000
001E000000
001E000000
0006000000
001C000000
0020000000
ENDCHAR

STARTCHAR Omacron
ENCODING 210
SWIDTH 833 0
DWIDTH 32 0
BBX 29 35 3 0
BITMAP
0007FFC0
0007FFC0
000FFFC0
00000000
00000000
00000000
00000000
0003F800
003FFF00
00FC0F80
01F807C0
03E003E0
07E001F0
0FC001F0
1F8001F8
3F8001F8
3F0001F8
7F0001F8
7F0001F8
7E0003F8
FE0003F8
FE0003F8
FE0003F0
FC0007F0
FC0007F0
FC0007E0
FC000FE0
FC000FC0
7C001F80
7C003F00
3E003E00
1F00FC00
0F81F800
07FFE000
00FE0000
ENDCHAR

STARTCHAR Kcommaaccent
ENCODING 211
SWIDTH 778 0
DWIDTH 30 0
BBX 34 36 -1 -8
BITMAP
01FFF1FFC0
01FFF3FF80
003F007C00
003F007800
003F00E000
007E01C000
007E038000
007E070000
007E0E0000
00FC1C0000
00FC300000
00FC700000
00F9F80000
01FBF80000
01FBFC0000
01FEFC0000
01FC7E0000
03F07E0000
03F03F0000
03F03F0000
07E01F0000
07E01F8000
07E00F8000
07E00FC000
0FC007C000
0FC00FE000
7FFC7FFC00
FFFC7FFC00
0000000000
0000000000
001E000000
001E000000
001E000000
0006000000
001C000000
0020000000
ENDCHAR

STARTCHAR Ocircumflex
ENCODING 212
SWIDTH 833 0
DWIDTH 32 0
BBX 29 37 3 0
BITMAP
00003E00
00007E00
0000FE00
0001E700
00038300
00060100
00080100
00000000
00000000
0003F800
003FFF00
00FC0F80
01F807C0
03E003E0
07E001F0
0FC001F0
1F8001F8
3F8001F8
3F0001F8
7F0001F8
7F0001F8
7E0003F8
FE0003F8
FE0003F8
FE0003F0
FC0007F0
FC0007F0
FC0007E0
FC000FE0
FC000FC0
7C001F80
7C003F00
3E003E00
1F00FC00
0F81F800
07FFE000
00FE0000
ENDCHAR

STARTCHAR Otilde
ENCODING 213
SWIDTH 833 0
DWIDTH 32 0
BBX 29 36 3 0
BITMAP
0001F040
0003FCC0
0007FF80
00047F80
00041E00
00000000
00000000
00000000
0003F800
003FFF00
00FC0F80
01F807C0
03E003E0
07E001F0
0FC001F0
1F8001F8
3F8001F8
3F0001F8
7F0001F8
7F0001F8
7E0003F8
FE0003F8
FE0003F8
FE0003F0
FC0007F0
FC0007F0
FC0007E0
FC000FE0
FC000FC0
7C001F80
7C003F00
3E003E00
1F00FC00
0F81F800
07FFE000
00FE0000
ENDCHAR

STARTCHAR Odieresis
ENCODING 214
SWIDTH 833 0
DWIDTH 32 0
BBX 29 36 2 0
BITMAP
00038380
0007C7C0
0007C7C0
0007C7C0
00038380
00000000
00000000
00000000
0007F800
003FFE00
00FC0F80
01F807C0
03E003E0
07E003F0
0FC001F0
1F8001F8
3F8001F8
3F0001F8
7F0001F8
7F0001F8
7E0003F8
FE0003F8
FE0003F8
FE0003F0
FC0007F0
FC0007F0
FC0007E0
FC000FE0
FC000FC0
7C001F80
7C003F00
3E007E00
1F00FC00
0F81F800
07FFE000
00FE0000
ENDCHAR

STARTCHAR multiply
ENCODING 215
SWIDTH 650 0
DWIDTH 25 0
BBX 20 19 4 3
BITMAP
3000C0
F801F0
7C03E0
3E07C0
1F0F80
0F8F00
07DE00
03FC00
01FC00
00F800
01FC00
03FE00
07DF00
0F8F80
1E07C0
3C03E0
F801F0
7000E0
200040
ENDCHAR

STARTCHAR Oslash
ENCODING 216
SWIDTH 833 0
DWIDTH 32 0
BBX 29 28 3 0
BITMAP
0003F838
001FFF60
007C0FC0
01F807E0
03F003E0
07E003F0
0FC006F0
1F800DF8
3F8019F8
3F0031F8
7F0061F8
7F00C1F8
7E0183F8
FE0303F8
FE0603F8
FE0C03F0
FC1807F0
FC3007F0
FC6007E0
FCC00FE0
FD800FC0
7F001F80
7E003F00
3E003E00
1F00FC00
3F81F800
67FFE000
E0FE0000
ENDCHAR

STARTCHAR Uogonek
ENCODING 217
SWIDTH 833 0
DWIDTH 32 0
BBX 30 35 5 -7
BITMAP
7FFE0FFC
7FFE0FFC
07E001E0
0FC001C0
0FC001C0
0FC00180
0FC00180
1F800180
1F800180
1F800300
3F800300
3F000300
3F000300
3F000600
7E000600
7E000600
7E000600
7E000C00
FC000C00
FC000C00
FC000C00
FC001800
FC001800
7E003000
7F006000
3F81C000
0FFF8000
01FE0000
00600000
00E00000
00E00000
00F00000
00F80000
007F0000
003E0000
ENDCHAR

STARTCHAR Uacute
ENCODING 218
SWIDTH 833 0
DWIDTH 32 0
BBX 30 38 5 0
BITMAP
00000C00
00001E00
00003E00
00007E00
0000F800
0000E000
00018000
00000000
00000000
00000000
7FFE0FFC
7FFC0FF8
07E003E0
0FC001C0
0FC001C0
0FC00180
0F800180
1F800180
1F800300
1F800300
3F000300
3F000300
3F000600
3E000600
7E000600
7E000600
7E000C00
7C000C00
FC000C00
FC000C00
FC001800
FC001800
FC003000
7E007000
7E00E000
3F83C000
0FFF8000
03FC0000
ENDCHAR

STARTCHAR Ucircumflex
ENCODING 219
SWIDTH 833 0
DWIDTH 32 0
BBX 30 38 5 0
BITMAP
00007800
0000FC00
0001FC00
0003DC00
00070C00
000C0600
00300200
00000000
00000000
00000000
7FFE0FFC
7FFC0FF8
07E003E0
0FC001C0
0FC001C0
0FC00180
0F800180
1F800180
1F800300
1F800300
3F000300
3F000300
3F000600
3E000600
7E000600
7E000600
7E000C00
7C000C00
FC000C00
FC000C00
FC001800
FC001800
FC003000
7E007000
7E00E000
3F83C000
0FFF8000
03FC0000
ENDCHAR

STARTCHAR Udieresis
ENCODING 220
SWIDTH 833 0
DWIDTH 32 0
BBX 30 37 5 0
BITMAP
00070E00
000F9F00
000F9F00
000F9F00
00070E00
00000000
00000000
00000000
00000000
7FFE0FFC
7FFC1FF8
07E003E0
0FC001C0
0FC00180
0FC00180
0F800180
1F800300
1F800300
1F800300
3F000300
3F000600
3F000600
3F000600
7E000600
7E000C00
7E000C00
7C000C00
FC000C00
FC001800
FC001800
FC001800
FC003000
7E007000
7E00E000
3F81C000
0FFF8000
03FC0000
ENDCHAR

STARTCHAR Utilde
ENCODING 221
SWIDTH 833 0
DWIDTH 32 0
BBX 30 37 5 0
BITMAP
0003E080
0007F900
000FFF00
0009FE00
00083C00
00000000
00000000
00000000
00000000
7FFE0FFC
7FFC0FF8
07E003E0
0FC001C0
0FC001C0
0FC00180
0F800180
1F800180
1F800300
1F800300
3F000300
3F000300
3F000600
3E000600
7E000600
7E000600
7E000C00
7C000C00
FC000C00
FC000C00
FC001800
FC001800
FC003000
7E007000
7E00E000
3F83C000
0FFF8000
03FC0000
ENDCHAR

STARTCHAR Umacron
ENCODING 222
SWIDTH 833 0
DWIDTH 32 0
BBX 30 36 5 0
BITMAP
000FFFC0
000FFF80
000FFF80
00000000
00000000
00000000
00000000
00000000
7FFE0FFC
7FFC0FF8
07E003E0
0FC001C0
0FC001C0
0FC00180
0F800180
1F800180
1F800300
1F800300
3F000300
3F000300
3F000600
3E000600
7E000600
7E000600
7E000C00
7C000C00
FC000C00
FC000C00
FC001800
FC001800
FC003000
7E007000
7E00E000
3F83C000
0FFF8000
03FC0000
ENDCHAR

STARTCHAR germandbls
ENCODING 223
SWIDTH 574 0
DWIDTH 22 0
BBX 26 36 -3 -8
BITMAP
0001FE00
0007CF00
000F8780
000F03C0
001F03C0
003E03C0
003E03C0
007C07C0
007C07C0
007C0F80
00F81F00
00F87C00
00F9E000
01F0F800
01F03C00
01F01E00
01F01F00
03E01F00
03E01F00
03E01F00
03E01F00
07C03F00
07CC3E00
07DE3E00
0F9E7E00
0F9CFC00
0F98F800
0F8FF000
1F07C000
1F000000
1F000000
3E000000
3E000000
7E000000
FC000000
40000000
ENDCHAR

STARTCHAR amacron
ENCODING 224
SWIDTH 667 0
DWIDTH 25 0
BBX 21 25 2 0
BITMAP
00FFF8
00FFF8
01FFF0
000000
000000
000000
000000
01F1F0
07F9F0
0FCDE0
1F07E0
3E07E0
7E07C0
7C07C0
7C07C0
FC07C0
F80F80
F80F80
F80F88
F81F18
F81F10
FC3F30
7CEFE0
3FCFC0
1F8F80
ENDCHAR

STARTCHAR aacute
ENCODING 225
SWIDTH 667 0
DWIDTH 25 0
BBX 21 27 2 0
BITMAP
0001C0
0003E0
0007E0
000F80
000E00
001800
000000
000000
000000
01F1F0
07F9F0
0FCDE0
1F07E0
3E07E0
7E07C0
7C07C0
7C07C0
FC07C0
F80F80
F80F80
F80F88
F81F18
F81F10
FC3F30
7CEFE0
3FCFC0
1F8F80
ENDCHAR

STARTCHAR acircumflex
ENCODING 226
SWIDTH 667 0
DWIDTH 25 0
BBX 21 28 2 0
BITMAP
000780
000F80
001FC0
003DC0
0071C0
00C0C0
030060
000000
000000
000000
01F1F0
07F9E0
0FCDE0
1F07E0
3E07E0
7E07C0
7C07C0
7C07C0
FC07C0
F80F80
F80F80
F80F88
F81F18
F81F10
FC3F30
7CEFE0
3FCFC0
1F8F80
ENDCHAR

STARTCHAR atilde
ENCODING 227
SWIDTH 667 0
DWIDTH 25 0
BBX 21 27 2 0
BITMAP
007C10
00FF10
00FFE0
019FE0
0107C0
000000
000000
000000
000000
01F1F0
07F9F0
0FCDE0
1F07E0
3E07E0
7E07C0
7C07C0
7C07C0
FC07C0
F80F80
F80F80
F80F88
F81F18
F81F10
FC3F30
7CEFE0
3FCFC0
1F8F80
ENDCHAR

STARTCHAR adieresis
ENCODING 228
SWIDTH 667 0
DWIDTH 25 0
BBX 21 27 3 0
BITMAP
00E0E0
01F1F0
01F1F0
01F1F0
00E0E0
000000
000000
000000
000000
03F1F0
07F9F0
0F8DE0
1F07E0
3E07E0
7E07C0
7C07C0
7C07C0
F807C0
F80F80
F80F80
F80F88
F81F18
F83F18
F83F30
7CEFE0
3FDFC0
1F0F80
ENDCHAR

STARTCHAR aring
ENCODING 229
SWIDTH 667 0
DWIDTH 25 0
BBX 22 28 2 0
BITMAP
000F00
001F80
0030C0
0030C0
0030C0
0039C0
001F80
000F00
000000
000000
01F9F0
07FDF0
0FC5F0
1F87E0
3F07E0
3E07E0
7E07C0
7C07C0
FC07C0
FC07C0
F80780
F80F8C
F80F88
F81F18
FC3F30
7C6FE0
3FCFC0
1F8780
ENDCHAR

STARTCHAR ae
ENCODING 230
SWIDTH 815 0
DWIDTH 31 0
BBX 29 18 1 0
BITMAP
01F9E3E0
07FDEFF0
0FCDE8F8
1F07F0F8
3F07E0F8
3E07E0F8
7E07C1F0
7C07C3E0
FC07C7C0
F807BF00
F807F000
F80F8000
F80F8000
F81F8030
7837C060
7C63E1C0
3FC1FF80
1F80FC00
ENDCHAR

STARTCHAR iogonek
ENCODING 231
SWIDTH 389 0
DWIDTH 15 0
BBX 11 35 3 -7
BITMAP
0780
0FC0
0FC0
0FC0
0FC0
0780
0000
0000
0000
0000
1F80
FF80
1F00
1F00
1F00
1F00
3E00
3E00
3E00
7C00
7C00
7C60
78C0
F8C0
FB80
FF00
7E00
3800
6000
E000
E000
F000
FC00
7F00
1E00
ENDCHAR

STARTCHAR ccaron
ENCODING 232
SWIDTH 537 0
DWIDTH 20 0
BBX 20 28 2 0
BITMAP
010010
008060
00C1C0
00E780
00FF00
007E00
007C00
007800
000000
000000
00FC00
03FF00
0F8380
1F0780
3E0F80
3E0F80
7C0F80
7C0200
FC0000
F80000
F80000
F80000
F80000
FC0300
7C0700
7E1C00
3FF800
0FE000
ENDCHAR

STARTCHAR eacute
ENCODING 233
SWIDTH 519 0
DWIDTH 20 0
BBX 17 27 2 0
BITMAP
000600
000F00
001F80
003F00
003C00
00F000
004000
000000
000000
007C00
03FF00
0F8F80
1F0F80
3E0F80
3E0F80
7C1F00
7C3E00
FC7C00
FDF000
FF0000
F80000
F80000
F80300
7C0600
7E1C00
3FF800
0FE000
ENDCHAR

STARTCHAR eogonek
ENCODING 234
SWIDTH 519 0
DWIDTH 20 0
BBX 17 25 2 -7
BITMAP
007C00
03FF00
078F80
1F0F80
3E0F80
3E0F80
7C1F00
7C3E00
FC7C00
FDF000
FF0000
F80000
F80000
F80300
7C0600
7E1C00
3FF800
0FE000
030000
070000
070000
078000
07C000
03F800
01F800
ENDCHAR

STARTCHAR edieresis
ENCODING 235
SWIDTH 519 0
DWIDTH 20 0
BBX 18 26 2 0
BITMAP
038380
07C7C0
07C7C0
07C7C0
038380
000000
000000
000000
007C00
03FF00
0F8F80
1F0F80
3E0F80
3E0F80
7C1F00
7C3E00
F87C00
FFF000
FF0000
F80000
F80000
F80300
7C0600
7E1C00
3FF800
0FE000
ENDCHAR

STARTCHAR edotaccent
ENCODING 236
SWIDTH 519 0
DWIDTH 20 0
BBX 17 26 2 0
BITMAP
003800
007C00
007C00
007C00
003800
000000
000000
000000
007C00
03FF00
0F8F80
1F0F80
3E0F80
3E0F80
7C1F00
7C3E00
FC7C00
FDF000
FF0000
F80000
F80000
F80300
7C0600
7E1C00
3FF800
0FE000
ENDCHAR

STARTCHAR iacute
ENCODING 237
SWIDTH 389 0
DWIDTH 15 0
BBX 13 27 3 0
BITMAP
0078
00F8
00F8
01F0
03C0
0700
0200
0000
0000
1F80
FF00
1F00
1F00
1F00
3E00
3E00
3E00
7C00
7C00
7C00
7860
F8C0
F980
FB80
FF00
FE00
3800
ENDCHAR

STARTCHAR icircumflex
ENCODING 238
SWIDTH 389 0
DWIDTH 15 0
BBX 13 27 3 0
BITMAP
01F0
03F0
07F0
0F30
1C18
3008
4008
0000
0000
1F80
FF00
1F00
1F00
1F00
3E00
3E00
3E00
7C00
7C00
7C00
7860
F8C0
F980
FB80
FF00
FE00
3800
ENDCHAR

STARTCHAR imacron
ENCODING 239
SWIDTH 389 0
DWIDTH 15 0
BBX 16 25 3 0
BITMAP
1FFF
3FFE
3FFE
0000
0000
0000
0000
1F80
FF00
1F00
1F00
1F00
3E00
3E00
3E00
7C00
7C00
7C00
7860
F8C0
F980
FB80
FF00
FE00
3800
ENDCHAR

STARTCHAR dcroat
ENCODING 240
SWIDTH 667 0
DWIDTH 25 0
BBX 25 28 2 0
BITMAP
00007F00
0001FE00
00007E00
00003E00
00007C00
001FFF80
003FFF80
00007C00
0000F800
0000F800
03F8F800
07FDF000
0FC6F000
1F83F000
3F03E000
7E03E000
7E03E000
7C03E000
FC07C000
FC07C000
F807C000
F80F8600
F80F8C00
F81F8C00
FC3F9800
7E77F000
3FCFE000
1F87C000
ENDCHAR

STARTCHAR ncommaaccent
ENCODING 241
SWIDTH 685 0
DWIDTH 26 0
BBX 23 26 2 -8
BITMAP
0383C0
7F8FE0
1F9FF0
0F31F0
0F61F0
1FC1F0
1F81F0
1F03E0
3F03E0
3E03E0
3E07C0
3C07C6
7C07CC
7C0F8C
7C0F98
F80FB0
F807F0
F807C0
000000
000000
03C000
03C000
03C000
00C000
038000
040000
ENDCHAR

STARTCHAR omacron
ENCODING 242
SWIDTH 574 0
DWIDTH 22 0
BBX 20 25 1 0
BITMAP
01FFF0
01FFF0
03FFE0
000000
000000
000000
000000
01FE00
07CF00
1F0380
1F03C0
3E03E0
7E03E0
7C03E0
FC03E0
FC07E0
F807E0
F807E0
F80FC0
F80FC0
781F80
781F00
3C3E00
1FF800
03E000
ENDCHAR

STARTCHAR kcommaaccent
ENCODING 243
SWIDTH 648 0
DWIDTH 25 0
BBX 21 35 2 -8
BITMAP
07F800
0FF800
01F000
01F000
01F000
01E000
03E000
03E000
03E000
03C1E0
07C7F0
07CFF8
07D878
0FB078
0FE078
0FC0F0
0F80E0
1F83C0
1F3F00
1F3C00
3E0E00
3E0F00
3E0F18
7C0F18
7C0F30
7C0FE0
780FC0
F80780
000000
008000
03C000
03C000
01C000
008000
070000
ENDCHAR

STARTCHAR ocircumflex
ENCODING 244
SWIDTH 574 0
DWIDTH 22 0
BBX 19 28 1 0
BITMAP
001F00
003F00
003F00
007B80
00E380
018180
060080
000000
000000
000000
03FE00
07CF80
1F0380
1F03C0
3E03E0
7E03E0
7C03E0
FC03E0
FC07E0
F807E0
F807E0
F80FC0
F80FC0
781F80
781F00
3C3E00
1FF800
03E000
ENDCHAR

STARTCHAR otilde
ENCODING 245
SWIDTH 574 0
DWIDTH 22 0
BBX 19 27 1 0
BITMAP
00F820
01FE60
01FFC0
033FC0
020F80
000000
000000
000000
000000
01FE00
07CF00
1F0380
1F03C0
3E03E0
7E03E0
7C03E0
FC03E0
FC07E0
F807E0
F807E0
F80FC0
F80FC0
781F80
781F00
3C3E00
1FF800
03E000
ENDCHAR

STARTCHAR odieresis
ENCODING 246
SWIDTH 574 0
DWIDTH 22 0
BBX 19 27 1 0
BITMAP
01C1C0
03E3E0
03E3E0
03E3E0
01C1C0
000000
000000
000000
000000
03FE00
07CF00
1F0780
3F03C0
3E03E0
7E03E0
7C03E0
FC03E0
FC07E0
F807E0
F807E0
F80FC0
F80FC0
781F80
781F00
3C3E00
1FF800
07E000
ENDCHAR

STARTCHAR divide
ENCODING 247
SWIDTH 650 0
DWIDTH 25 0
BBX 20 19 4 3
BITMAP
00F000
00F000
00F000
006000
000000
000000
000000
000000
FFFFF0
FFFFF0
FFFFF0
000000
000000
000000
000000
006000
00F000
00F000
007000
ENDCHAR

STARTCHAR oslash
ENCODING 248
SWIDTH 574 0
DWIDTH 22 0
BBX 19 18 1 0
BITMAP
01FE60
07C7C0
0F83C0
1F03E0
3F07E0
3E0DE0
7E1BE0
7C33E0
FC63E0
FCC3E0
FD87E0
FB07E0
FE0FC0
780F80
7C1F80
3C3E00
6FFC00
C3E000
ENDCHAR

STARTCHAR uogonek
ENCODING 249
SWIDTH 685 0
DWIDTH 26 0
BBX 22 25 3 -7
BITMAP
7F81F0
FF81F0
1F01F0
1F03E0
1F03E0
3E03E0
3E07C0
3E07C0
7C07C0
7C0F80
7C0F80
781F88
F83F0C
F86F18
F8DF30
FF8FE0
7F07C0
000E00
001C00
001C00
001E00
001E00
000F80
000FE0
000380
ENDCHAR

STARTCHAR uacute
ENCODING 250
SWIDTH 685 0
DWIDTH 26 0
BBX 22 28 3 0
BITMAP
0001C0
0003E0
0007E0
0007C0
000F80
001E00
001000
000000
000000
000000
FF81F0
FF81F0
1F01F0
1F03E0
1F03E0
3E03E0
3E07C0
3E07C0
7C07C0
7C0F80
7C0F80
F81F8C
F83F18
F86F18
F8DF30
FF9FE0
7F0FC0
3C0700
ENDCHAR

STARTCHAR ucircumflex
ENCODING 251
SWIDTH 685 0
DWIDTH 26 0
BBX 22 28 3 0
BITMAP
000780
000F80
001FC0
003DC0
0070C0
00C040
030020
000000
000000
000000
FF81F0
FF81F0
1F01F0
1F03E0
1F03E0
3E03E0
3E07C0
3E07C0
7C07C0
7C0F80
7C0F80
F81F8C
F83F18
F86F18
F8DF30
FF9FE0
7F0FC0
3C0700
ENDCHAR

STARTCHAR udieresis
ENCODING 252
SWIDTH 685 0
DWIDTH 26 0
BBX 22 27 3 0
BITMAP
0070E0
00F9F0
00F9F0
00F9F0
0070E0
000000
000000
000000
000000
FF81F0
FF81F0
1F01F0
1F03E0
1F03E0
3E03E0
3E07C0
3E07C0
7C07C0
7C0F80
7C0F80
F81F8C
F83F18
F86F18
F8DF30
FF9FE0
7F0FC0
3C0700
ENDCHAR

STARTCHAR utilde
ENCODING 253
SWIDTH 685 0
DWIDTH 26 0
BBX 22 27 3 0
BITMAP
00F820
01FE20
01FFC0
013FC0
020F80
000000
000000
000000
000000
FF81F0
FF81F0
1F01F0
1F03E0
1F03E0
3E03E0
3E07C0
3E07C0
7C07C0
7C0F80
7C0F80
F81F8C
F83F18
F86F18
F8DF30
FF9FE0
7F0FC0
3C0700
ENDCHAR

STARTCHAR umacron
ENCODING 254
SWIDTH 685 0
DWIDTH 26 0
BBX 22 26 3 0
BITMAP
00FFF8
00FFF8
00FFF8
000000
000000
000000
000000
000000
FF81F0
FF01F0
1F01F0
1F03E0
1F03E0
3E03E0
3E07C0
3E07C0
7C07C0
7C0F80
7C0F80
F81F8C
F83F18
F86F18
F8DF30
FF9FE0
7F0FC0
3C0700
ENDCHAR

STARTCHAR dotaccent
ENCODING 255
SWIDTH 333 0
DWIDTH 13 0
BBX 5 5 7 21
BITMAP
70
F8
F8
F8
70
ENDCHAR
ENDFONT
